<svg width="16" height="16" viewBox="0 0 16 16" fill="none" xmlns="http://www.w3.org/2000/svg">
<g clip-path="url(#clip0_4536_16415)">
<path d="M11.7699 9.88469L10.8272 8.94202L11.7699 7.99935C12.0175 7.75172 12.2139 7.45774 12.348 7.1342C12.482 6.81066 12.5509 6.46389 12.5509 6.11369C12.5509 5.76348 12.482 5.41671 12.348 5.09317C12.2139 4.76963 12.0175 4.47565 11.7699 4.22802C11.5222 3.98039 11.2283 3.78396 10.9047 3.64994C10.5812 3.51593 10.2344 3.44695 9.88421 3.44695C9.53401 3.44695 9.18724 3.51593 8.8637 3.64994C8.54015 3.78396 8.24617 3.98039 7.99854 4.22802L7.05588 5.17068L6.11321 4.22802L7.05588 3.28535C7.80808 2.5453 8.82225 2.13246 9.87746 2.13675C10.9327 2.14105 11.9434 2.56214 12.6896 3.30829C13.4358 4.05445 13.8568 5.06522 13.8611 6.12043C13.8654 7.17565 13.4526 8.18981 12.7125 8.94202L11.7699 9.88469ZM9.88388 11.7707L8.94121 12.7134C8.57089 13.0898 8.12971 13.3891 7.64312 13.5942C7.15653 13.7992 6.63416 13.9059 6.10613 13.908C5.57811 13.9102 5.05488 13.8078 4.56664 13.6067C4.07839 13.4056 3.63479 13.1099 3.26142 12.7365C2.88804 12.3631 2.59229 11.9195 2.39122 11.4313C2.19014 10.943 2.08773 10.4198 2.08988 9.89176C2.09203 9.36374 2.1987 8.84137 2.40374 8.35478C2.60879 7.86818 2.90814 7.427 3.28454 7.05669L4.22721 6.11402L5.16988 7.05669L4.22721 7.99935C3.97958 8.24698 3.78315 8.54096 3.64914 8.8645C3.51512 9.18805 3.44614 9.53482 3.44614 9.88502C3.44614 10.2352 3.51512 10.582 3.64914 10.9055C3.78315 11.2291 3.97958 11.5231 4.22721 11.7707C4.47484 12.0183 4.76882 12.2147 5.09236 12.3488C5.4159 12.4828 5.76268 12.5518 6.11288 12.5518C6.46308 12.5518 6.80985 12.4828 7.13339 12.3488C7.45694 12.2147 7.75092 12.0183 7.99854 11.7707L8.94121 10.828L9.88388 11.7707ZM9.88388 5.17068L10.8272 6.11402L6.11321 10.8274L5.16988 9.88469L9.88388 5.17068Z" fill="#F7F7F7"/>
</g>
<defs>
<clipPath id="clip0_4536_16415">
<rect width="16" height="16" fill="white"/>
</clipPath>
</defs>
</svg>
