<svg width="132" height="20" viewBox="0 0 132 20" fill="none" xmlns="http://www.w3.org/2000/svg">
<path d="M8.41228 5.86328H0V15.5712H2.34141V12.4128H6.82795L8.87497 15.5712H11.4968L9.23947 12.3983C9.94052 12.2818 10.4452 12.0053 10.7537 11.5687C11.0621 11.1321 11.2163 10.4334 11.2163 9.5019V8.77419C11.2163 8.22112 11.1603 7.78451 11.0621 7.44971C10.964 7.11497 10.7957 6.82388 10.5574 6.5619C10.305 6.31447 10.0246 6.13982 9.68815 6.02338C9.35165 5.92149 8.93101 5.86328 8.41228 5.86328ZM8.03373 10.2733H2.34141V8.00279H8.03373C8.35619 8.00279 8.58051 8.06102 8.69269 8.16289C8.80483 8.26477 8.87497 8.45398 8.87497 8.73055V9.5456C8.87497 9.83669 8.80483 10.0259 8.69269 10.1278C8.58051 10.2297 8.35619 10.2733 8.03373 10.2733Z" fill="white"/>
<path d="M14.661 12.7039V5.86328H12.3196V12.6457C12.3196 13.1988 12.3616 13.65 12.4598 13.9847C12.5579 14.334 12.7262 14.6251 12.9785 14.8726C13.2169 15.1346 13.4973 15.3092 13.8338 15.4111C14.1703 15.5275 14.5909 15.5712 15.1237 15.5712H20.7319C21.2506 15.5712 21.6712 15.5275 22.0077 15.4111C22.3442 15.3092 22.6246 15.1346 22.877 14.8726C23.1153 14.6251 23.2835 14.334 23.3817 13.9847C23.4799 13.65 23.5359 13.1988 23.5359 12.6457V5.86328H21.1945V12.7039C21.1945 12.995 21.1244 13.1842 21.0123 13.2861C20.9001 13.388 20.6758 13.4316 20.3533 13.4316H15.5022C15.1657 13.4316 14.9414 13.388 14.8292 13.2861C14.7171 13.1842 14.661 12.995 14.661 12.7039Z" fill="white"/>
<path d="M31.4564 15.5712V8.00279H35.985V5.86328H24.5864V8.00279H29.1149V15.5712H31.4564Z" fill="white"/>
<path d="M39.3761 12.7039V5.86328H37.0346V12.6457C37.0346 13.1988 37.0767 13.65 37.1749 13.9847C37.273 14.334 37.4412 14.6251 37.6936 14.8726C37.932 15.1346 38.2124 15.3092 38.5489 15.4111C38.8853 15.5275 39.306 15.5712 39.8387 15.5712H45.4469C45.9657 15.5712 46.3863 15.5275 46.7228 15.4111C47.0593 15.3092 47.3397 15.1346 47.5921 14.8726C47.8304 14.6251 47.9986 14.334 48.0968 13.9847C48.1949 13.65 48.251 13.1988 48.251 12.6457V5.86328H45.9096V12.7039C45.9096 12.995 45.8395 13.1842 45.7273 13.2861C45.6151 13.388 45.3908 13.4316 45.0684 13.4316H40.2173C39.8808 13.4316 39.6565 13.388 39.5443 13.2861C39.4321 13.1842 39.3761 12.995 39.3761 12.7039Z" fill="white"/>
<path d="M60.117 8.68685V8.49768C60.117 7.59529 59.8928 6.92577 59.4437 6.50368C58.9952 6.0816 58.2802 5.86328 57.327 5.86328H49.3772V15.5712H57.7896C58.7428 15.5712 59.4578 15.3674 59.9068 14.9453C60.3554 14.5233 60.5796 13.8537 60.5796 12.9514V12.7476C60.5796 11.8452 60.3554 11.2048 59.9068 10.8264C59.8225 10.7682 59.7382 10.7245 59.6544 10.6809C59.5702 10.6372 59.4437 10.579 59.2897 10.5208C59.5983 10.3461 59.8085 10.1132 59.9344 9.85122C60.0468 9.58924 60.117 9.19628 60.117 8.68685ZM51.7187 9.74935V8.00279H56.9482C57.2848 8.00279 57.5091 8.06102 57.6215 8.16289C57.7334 8.26477 57.7896 8.45398 57.7896 8.73055V9.02164C57.7896 9.31273 57.7334 9.5019 57.6215 9.60383C57.5091 9.7057 57.2848 9.74935 56.9482 9.74935H51.7187ZM51.7187 13.4316V11.6851H57.4248C57.7474 11.6851 57.9717 11.7433 58.0841 11.8452C58.1959 11.9471 58.2662 12.1363 58.2662 12.4128V12.7039C58.2662 12.995 58.1959 13.1842 58.0841 13.2861C57.9717 13.388 57.7474 13.4316 57.4248 13.4316H51.7187Z" fill="white"/>
<path d="M63.7555 8.00279H71.4107V5.86328H61.414V15.5712H71.789V13.4316H63.7555V11.787H71.2281L71.4107 9.64747H63.7555V8.00279Z" fill="white"/>
<path d="M73.6188 5.2765C74.5236 5.2765 75.2571 4.51505 75.2571 3.57575C75.2571 2.63645 74.5236 1.875 73.6188 1.875C72.714 1.875 71.9805 2.63645 71.9805 3.57575C71.9805 4.51505 72.714 5.2765 73.6188 5.2765Z" fill="#ED143B"/>
<path d="M88.1988 6.36543C87.9616 4.39015 87.0916 3.6409 85.0353 3.6409H80.812C79.6256 3.6409 78.9139 3.87929 78.3919 4.45826C77.9173 4.96911 77.6484 5.8035 77.6484 6.70601V7.11469C77.6484 8.01719 77.9173 8.83455 78.3919 9.36242C78.9139 9.94141 79.6256 10.1798 80.812 10.1798H84.5766C85.5889 10.1798 85.8578 10.2479 86.1584 10.5204C86.3798 10.7417 86.4747 11.0312 86.4747 11.525V11.9507C86.4747 12.4446 86.3798 12.734 86.1584 12.9554C85.8578 13.2279 85.5889 13.296 84.5766 13.296H81.2391C80.2267 13.296 79.9262 13.2279 79.6573 12.9554C79.4675 12.7681 79.3884 12.5127 79.341 12.0359L77.6484 12.2742C77.8857 14.2495 78.7557 14.9989 80.812 14.9989H85.0353C86.2058 14.9989 86.9334 14.7604 87.4396 14.1814C87.9142 13.6707 88.1988 12.8362 88.1988 11.9507V11.542C88.1988 10.6225 87.9142 9.80516 87.4396 9.29431C86.9334 8.71534 86.2058 8.47695 85.0353 8.47695H81.2549C80.2583 8.47695 79.9737 8.40884 79.6731 8.13638C79.4517 7.91502 79.3568 7.62554 79.3568 7.11469V6.70601C79.3568 6.19516 79.4517 5.90567 79.6731 5.6843C79.9737 5.41185 80.2583 5.34374 81.2549 5.34374H84.6082C85.6206 5.34374 85.9212 5.41185 86.19 5.6843C86.3798 5.88864 86.4589 6.12704 86.5063 6.60383L88.1988 6.36543ZM94.2027 13.296C92.6522 13.33 92.3042 13.0236 92.3042 11.5931V7.62554H95.8944L96.1005 5.9227H92.3042V3.6409H90.6117V5.9227H89.457V7.62554H90.6117V11.5931C90.6117 12.8873 90.8173 13.6195 91.3551 14.1814C91.9088 14.7604 92.6047 14.9989 93.7752 14.9989H96.8443V13.296H94.2027ZM106.86 5.9227H105.167V13.296H102.019C100.991 13.296 100.691 13.2279 100.437 12.9554C100.184 12.6659 100.121 12.3083 100.121 11.2526V5.9227H98.4289V11.5931C98.4289 12.8873 98.634 13.6195 99.1717 14.1814C99.7257 14.7604 100.422 14.9989 101.592 14.9989H106.86V5.9227ZM117.344 14.9989V2.5H115.651V5.9227H112.077C110.905 5.9227 110.21 6.16109 109.657 6.74006C109.119 7.302 108.913 8.03422 108.913 9.32837V11.5931C108.913 12.8873 109.119 13.6195 109.657 14.1814C110.21 14.7604 110.905 14.9989 112.077 14.9989H117.344ZM115.651 7.62554V13.296H112.503C111.476 13.296 111.175 13.2279 110.922 12.9554C110.669 12.6659 110.605 12.3083 110.605 11.2526V9.66894C110.605 8.61318 110.669 8.25558 110.922 7.9661C111.175 7.69365 111.476 7.62554 112.503 7.62554H115.651ZM119.602 14.9989H121.293V5.9227H119.602V14.9989ZM119.602 4.20283H121.293V2.5H119.602V4.20283ZM132.002 9.32837C132.002 8.03422 131.797 7.302 131.259 6.74006C130.705 6.16109 130.009 5.9227 128.839 5.9227H126.513C125.343 5.9227 124.646 6.16109 124.093 6.74006C123.556 7.302 123.349 8.03422 123.349 9.32837V11.5931C123.349 12.8873 123.556 13.6195 124.093 14.1814C124.646 14.7604 125.343 14.9989 126.513 14.9989H128.839C130.009 14.9989 130.705 14.7604 131.259 14.1814C131.797 13.6195 132.002 12.8873 132.002 11.5931V9.32837ZM125.042 9.66894C125.042 8.61318 125.105 8.25558 125.358 7.9661C125.611 7.69365 125.912 7.62554 126.94 7.62554H128.411C129.44 7.62554 129.74 7.69365 129.993 7.9661C130.246 8.25558 130.309 8.61318 130.309 9.66894V11.2526C130.309 12.3083 130.246 12.6659 129.993 12.9554C129.74 13.2279 129.44 13.296 128.411 13.296H126.94C125.912 13.296 125.611 13.2279 125.358 12.9554C125.105 12.6659 125.042 12.3083 125.042 11.2526V9.66894Z" fill="#ED143B"/>
</svg>
