<svg width="131" height="20" viewBox="0 0 131 20" fill="none" xmlns="http://www.w3.org/2000/svg">
<path d="M25.2344 3.75391V6.28031H28.6275V15.5579L31.1701 17.0703V6.28031H34.5717V3.75391H25.2344Z" fill="#0593A1"/>
<path d="M47.4713 7.39421C46.9015 6.54926 46.0001 6.02539 44.6735 6.02539C41.9522 6.02539 40.0898 8.21381 40.0898 10.9177C40.0898 13.6215 41.9607 15.8099 44.6735 15.8099C46.0001 15.8099 46.9015 15.2945 47.4713 14.4411V15.5564H50.014V6.28733H47.4713V7.39421ZM45.0136 13.2835C43.704 13.2835 42.6325 12.2273 42.6325 10.9177C42.6325 9.61643 43.6955 8.5518 45.0136 8.5518C46.3317 8.5518 47.3947 9.60798 47.3947 10.9177C47.3862 12.2189 46.3147 13.2835 45.0136 13.2835Z" fill="#0593A1"/>
<path d="M56.971 6.0332C55.7124 6.0332 54.828 6.50638 54.2497 7.28373V6.27824H51.707V15.5558H54.2497V10.9086C54.2497 9.60735 55.3127 8.54271 56.6308 8.54271C57.9404 8.54271 59.0119 9.5989 59.0119 10.9086V15.5474H61.5546V10.4861H61.5376C61.359 7.99349 59.5477 6.0332 56.971 6.0332Z" fill="#0593A1"/>
<path d="M37.1149 7.27656V6.27951H34.5723V15.5571H37.1149V10.9098C37.1149 9.60862 38.1779 8.54398 39.4961 8.54398C39.6151 8.54398 39.7257 8.52708 39.8362 8.54398V6.01758C38.5691 6.03448 37.7017 6.4992 37.1149 7.27656Z" fill="#0593A1"/>
<path d="M83.7908 6.0332C82.3366 6.0332 80.942 6.65847 79.9555 7.63861C79.1391 6.65002 77.9401 6.0332 76.4944 6.0332C75.2869 6.0332 74.3939 6.46413 73.7732 7.19079V6.27824H71.2305V15.5558H73.7732V10.9086C73.7732 9.60735 74.8361 8.54271 76.1543 8.54271C77.4724 8.54271 78.5354 9.5989 78.5354 10.9086V15.5474H81.078V10.9086C81.078 9.60735 82.141 8.54271 83.4592 8.54271C84.7773 8.54271 85.8403 9.5989 85.8403 10.9086V15.5474H88.3829V10.9086C88.3744 8.21318 86.5121 6.0332 83.7908 6.0332Z" fill="#0593A1"/>
<path d="M65.2447 8.90731C65.2447 8.40879 65.7295 8.14686 66.3247 8.14686C67.0136 8.14686 67.5323 8.50174 67.8129 9.0932L69.8624 7.97787C69.1395 6.70199 67.8299 6.01758 66.3162 6.01758C64.4028 6.01758 62.7701 7.07377 62.7701 8.95801C62.7701 12.2195 67.5833 11.476 67.5833 12.8363C67.5833 13.3771 67.0646 13.6306 66.2992 13.6306C65.3723 13.6306 64.7345 13.1912 64.4709 12.4308L62.3789 13.5968C63.0507 15.0163 64.4284 15.8021 66.2992 15.8021C68.2892 15.8021 70.041 14.8389 70.041 12.8363C70.058 9.42273 65.2447 10.2846 65.2447 8.90731Z" fill="#0593A1"/>
<path d="M96.8619 7.39421C96.2921 6.54926 95.3907 6.02539 94.0641 6.02539C91.3428 6.02539 89.4805 8.21381 89.4805 10.9177C89.4805 13.6215 91.3513 15.8099 94.0641 15.8099C95.3907 15.8099 96.2921 15.2945 96.8619 14.4411V15.5564H99.4046V6.28733H96.8619V7.39421ZM94.4043 13.2835C93.0947 13.2835 92.0232 12.2273 92.0232 10.9177C92.0232 9.61643 93.0861 8.5518 94.4043 8.5518C95.7139 8.5518 96.7854 9.60798 96.7854 10.9177C96.7769 12.2189 95.7139 13.2835 94.4043 13.2835Z" fill="#0593A1"/>
<path d="M104.676 5.27482L102.134 3.75391V6.28031H100.441V8.80672H102.134V12.685C102.134 14.2736 103.418 15.5494 105.017 15.5494H106.369V13.0315H105.518C105.051 13.0315 104.668 12.6597 104.668 12.1865V8.81517H106.36V6.28031H104.676V5.27482Z" fill="#0593A1"/>
<path d="M110.615 6.2793H108.072V15.5569H110.615V6.2793Z" fill="#0593A1"/>
<path d="M109.338 5.43329C110.044 5.43329 110.614 4.86717 110.614 4.16586C110.614 3.46455 110.044 2.89844 109.338 2.89844C108.632 2.89844 108.062 3.46455 108.062 4.16586C108.071 4.86717 108.641 5.43329 109.338 5.43329Z" fill="#0593A1"/>
<path d="M121.654 6.28031H118.32L114.859 10.3868V5.27482L112.316 3.75391V15.5579H114.859V11.4514L118.32 15.5579H121.654L117.733 10.9191L121.654 6.28031Z" fill="#0593A1"/>
<path d="M128.438 6.27888V7.39421C127.868 6.54926 126.967 6.02539 125.64 6.02539C122.919 6.02539 121.057 8.21381 121.057 10.9177C121.057 13.6215 122.928 15.8099 125.64 15.8099C126.967 15.8099 127.868 15.2945 128.438 14.4411V15.5564H130.981V6.28733H128.438V6.27888ZM125.98 13.2835C124.671 13.2835 123.599 12.2273 123.599 10.9177C123.599 9.61643 124.662 8.5518 125.98 8.5518C127.29 8.5518 128.362 9.60798 128.362 10.9177C128.362 12.2273 127.29 13.2835 125.98 13.2835Z" fill="#0593A1"/>
<path d="M5.51906 0H14.6098C17.6542 0 20.1289 2.45036 20.1289 5.48374V14.5163C20.1289 17.5412 17.6627 20 14.6098 20H5.51906C2.46615 19.9916 0 17.5412 0 14.5078V5.48374C0 2.45036 2.46615 0 5.51906 0Z" fill="#0593A1"/>
<path d="M13.1977 16.0646C13.0617 16.0646 12.9171 16.0223 12.7895 15.9463L10.2554 14.4338C9.85567 14.2057 9.61756 13.7663 9.61756 13.3185V7.877L7.15141 9.11063C6.78574 9.29652 6.35204 9.29652 5.97787 9.11063L4.23455 8.24033C3.79235 8.02065 3.51172 7.57282 3.51172 7.0743V4.69999C3.51172 4.4296 3.64778 4.18457 3.88589 4.03247C4.1155 3.88883 4.40463 3.88038 4.65125 3.99023L10.0598 6.68562L15.4768 3.99868C15.7149 3.87193 16.0125 3.88883 16.2421 4.04092C16.4717 4.18457 16.6163 4.43805 16.6163 4.70844V7.9446C16.6163 8.44312 16.3357 8.89095 15.8935 9.11063L13.9971 10.057V15.2957C13.9971 15.5745 13.844 15.8364 13.5974 15.9801C13.4698 16.0308 13.3338 16.0646 13.1977 16.0646ZM10.4935 12.8115V13.1833C10.4935 13.3354 10.57 13.6058 10.7061 13.6818L13.1127 15.1182V10.5977L11.4204 11.2991C10.8506 11.6117 10.4935 12.1778 10.4935 12.8115ZM10.4935 7.877V10.8935C10.655 10.7583 10.8336 10.6315 11.0377 10.5386L13.1212 9.50776V9.44017C13.1212 9.27962 13.0276 9.11908 12.8831 9.05149L10.4935 7.877ZM11.0292 7.17569L13.2572 8.28258C13.5974 8.45157 13.8355 8.7473 13.9376 9.10218L15.4853 8.33328C15.6299 8.25723 15.7234 8.11359 15.7234 7.9446V4.85208L11.0292 7.17569ZM4.38763 4.83518V7.06585C4.38763 7.22639 4.48117 7.38693 4.62574 7.45453L6.36905 8.31638C6.49661 8.37553 6.64117 8.37553 6.76023 8.31638L9.08181 7.1588L4.38763 4.83518Z" fill="white"/>
</svg>
