<svg width="76" height="24" viewBox="0 0 76 24" fill="none" xmlns="http://www.w3.org/2000/svg">
<g clip-path="url(#clip0_4521_13220)">
<path d="M30.5758 15.4119V6.38477H28.7012V17.1581H34.729V15.4119H30.5758Z" fill="white"/>
<path d="M36.6745 6.16016C36.452 6.16049 36.2346 6.22893 36.0498 6.35684C35.8649 6.48475 35.721 6.66639 35.636 6.8788C35.5511 7.09121 35.529 7.32486 35.5726 7.55023C35.6161 7.77561 35.7234 7.98259 35.8808 8.14502C36.0381 8.30745 36.2386 8.41804 36.4568 8.46282C36.675 8.5076 36.9012 8.48457 37.1067 8.39662C37.3122 8.30867 37.4879 8.15976 37.6116 7.9687C37.7352 7.77764 37.8013 7.55301 37.8014 7.32319C37.8015 7.17032 37.7725 7.01892 37.7159 6.87767C37.6593 6.73642 37.5763 6.60809 37.4716 6.50005C37.3669 6.392 37.2426 6.30637 37.1058 6.24804C36.969 6.18972 36.8224 6.15985 36.6745 6.16016V6.16016ZM35.7738 9.36883V17.1583H37.573V9.36883H35.7738Z" fill="white"/>
<path d="M44.6054 9.36914L42.4162 14.0057L40.227 9.36914H38.3535L42.4162 17.654L46.4649 9.36914H44.6054Z" fill="white"/>
<path d="M54.1404 13.0788C54.1404 11.9659 53.7957 11.0377 53.0911 10.2809C52.4016 9.52297 51.502 9.15234 50.4074 9.15234C49.2524 9.15234 48.3087 9.52297 47.5589 10.2809C46.8241 11.0377 46.4492 12.0271 46.4492 13.2636V13.3259C46.4492 14.5468 46.8241 15.5206 47.5589 16.2474C48.2936 16.973 49.2675 17.3448 50.4526 17.3448C51.7272 17.3448 52.7765 16.8806 53.6309 15.9536L52.5514 14.8717C52.2888 15.1572 51.9724 15.3841 51.6216 15.5382C51.2708 15.6923 50.8931 15.7704 50.512 15.7677C49.1782 15.7677 48.2937 14.9641 48.2333 13.7276H54.1114C54.1254 13.5262 54.1404 13.3104 54.1404 13.0788ZM48.2785 12.4289C48.3019 12.1901 48.3741 11.9591 48.4904 11.7513C48.6066 11.5435 48.7643 11.3636 48.953 11.2236C49.3701 10.8944 49.8826 10.7203 50.4074 10.7294C50.8988 10.7187 51.3758 10.9008 51.7423 11.2391C51.9185 11.3797 52.0614 11.5599 52.1602 11.7661C52.2589 11.9722 52.3109 12.1989 52.3122 12.4289L48.2785 12.4289Z" fill="white"/>
<path d="M59.5903 5.85938L54.418 17.158H56.3971L57.3258 15.0712H61.8248L62.7535 17.158H64.7476L59.5903 5.85938ZM58.0314 13.4018L59.5753 9.89381L61.1191 13.4018H58.0314Z" fill="white"/>
<path d="M65.7285 9.36914V17.1587H67.5126V9.36914H65.7285Z" fill="white"/>
<path d="M75.2171 11.0525V9.36862H73.5526V6.38477H71.7534V9.36862H70.8086V11.0525H71.7534V14.7319C71.7534 16.4936 72.5636 17.3751 74.198 17.3751C74.51 17.3804 74.8215 17.3491 75.1267 17.2816V15.6278C74.9199 15.6732 74.7088 15.6941 74.4975 15.6901C73.8381 15.6901 73.5527 15.3807 73.5527 14.5304V11.0525H75.2171Z" fill="white"/>
<path d="M69.1165 9.25L67.7715 11.0526H70.4616L69.1165 9.25Z" fill="white"/>
<path d="M23.2324 0V24H0V0H23.2324ZM9.28613 17.1582L3.81738 5.85938V17.1582H20.2236L14.7549 5.85938L9.28613 17.1582Z" fill="white"/>
</g>
<defs>
<clipPath id="clip0_4521_13220">
<rect width="75.2" height="24" fill="white"/>
</clipPath>
</defs>
</svg>
